<svg xmlns="http://www.w3.org/2000/svg" viewBox="0 0 100 125"><g fill-rule="nonzero" fill="black" stroke="black"><path d="M69.502 33.896l-1.834 44.01c-.035.861-.801 1.594-1.668 1.594H34c-.866 0-1.633-.735-1.668-1.593l-1.834-44.011a2.5 2.5 0 0 0-4.996.208l1.834 44.01C27.483 81.653 30.454 84.5 34 84.5h32c3.544 0 6.516-2.843 6.664-6.385l1.834-44.01a2.5 2.5 0 0 0-4.996-.21z"/><path d="M48 38v34a2 2 0 1 0 4 0V38a2 2 0 1 0-4 0zM37 38.059l1 34a2 2 0 1 0 4-.118l-1-34a2 2 0 1 0-4 .118zM59 37.941l-1 34a2 2 0 1 0 4 .118l1-34a2 2 0 1 0-4-.118zM25 28h50a2.5 2.5 0 1 0 0-5H25a2.5 2.5 0 1 0 0 5z"/><path d="M42.404 24.687l1.04-3.644c.224-.78 1.235-1.543 2.047-1.543h9.018c.812 0 1.823.762 2.046 1.543l1.041 3.644 4.808-1.374-1.041-3.643c-.837-2.928-3.81-5.17-6.854-5.17H45.49c-3.044 0-6.018 2.243-6.854 5.17l-1.04 3.643 4.807 1.374z"/></g></svg>
