<?xml version="1.0" encoding="UTF-8"?>
<svg width="700pt" height="700pt" version="1.1" viewBox="0 0 700 700" xmlns="http://www.w3.org/2000/svg" xmlns:xlink="http://www.w3.org/1999/xlink">
  <path d="m562.8 425.6h-425.6c-6.1602 0-11.199-5.0391-11.199-11.199v-22.398c0-6.1602 5.0391-11.199 11.199-11.199h425.6c6.1602 0 11.199 5.0391 11.199 11.199v22.398c0 6.1562-5.0391 11.199-11.199 11.199zm0-123.2h-425.6c-6.1602 0-11.199-5.0391-11.199-11.199v-22.398c0-6.1602 5.0391-11.199 11.199-11.199h425.6c6.1602 0 11.199 5.0391 11.199 11.199v22.398c0 6.1602-5.0391 11.199-11.199 11.199zm0-123.2h-425.6c-6.1602 0-11.199-5.0391-11.199-11.199v-22.398c0-6.1602 5.0391-11.199 11.199-11.199h425.6c6.1602 0 11.199 5.0391 11.199 11.199v22.398c0 6.1602-5.0391 11.199-11.199 11.199z" fill-rule="evenodd"/>
</svg>
