<?xml version="1.0" encoding="UTF-8"?>
<svg width="700pt" height="550pt" version="1.1" viewBox="0 0 700 550" xmlns="http://www.w3.org/2000/svg" xmlns:xlink="http://www.w3.org/1999/xlink">
 <g>
  <path d="m362.28 455h-10.555c-17.059 0-31.961-12.117-35.441-28.812-0.71484-3.4219-2.8477-5.7266-5.832-6.7148-6.5312-2.1758-12.973-4.8359-19.152-7.9258-2.7656-1.3789-6-1.2656-8.4062 0.30859-15.105 9.8984-34.074 7.4336-45.898-4.3828l-7.4609-7.4609c-12.062-12.062-14.035-31.172-4.6836-45.438 1.7422-2.6602 1.8477-5.8086 0.42188-8.6367-3.1836-6.293-5.9297-12.867-8.1562-19.523-0.99219-2.9453-3.2812-5.0664-6.1406-5.6641-16.855-3.5117-28.973-18.422-28.973-35.473v-10.555c0-17.059 12.117-31.961 28.812-35.441 2.8633-0.59375 5.1602-2.7148 6.1406-5.6758 2.2461-6.7617 5.0117-13.391 8.2031-19.727 1.3984-2.7734 1.3164-5.8594-0.21094-8.2969l-0.10547-0.15234c-9.3516-14.266-7.3789-33.383 4.6836-45.438l7.4609-7.4609c6.8398-6.8398 15.926-10.605 25.605-10.605 7.0625 0 13.914 2.043 19.832 5.9219 2.625 1.707 5.7812 1.7578 8.5273 0.39062 6.3125-3.1797 12.914-5.9062 19.602-8.1211 2.9766-0.98828 5.1016-3.2812 5.6992-6.1445 3.5117-16.855 18.422-28.973 35.473-28.973h10.555c17.059 0 31.961 12.117 35.441 28.812 0.69141 3.3047 2.8008 5.6016 5.7617 6.5938 6.5586 2.2031 13.012 4.9062 19.18 8.0234 2.7422 1.3867 6.0273 1.2812 8.4414-0.28516 15.121-9.9258 34.074-7.4492 45.906 4.375l7.4609 7.4609c12.062 12.062 14.035 31.172 4.6836 45.438l-0.50391 0.76953c-1.5742 2.3945-1.6875 5.543-0.28125 8.3633 3.0469 6.1094 5.6719 12.445 7.7891 18.828 0.99219 2.9688 3.2969 5.1016 6.1523 5.6992l0.82031 0.16797c16.754 3.5156 28.871 18.426 28.871 35.477v10.555c0 17.059-12.117 31.961-28.812 35.441l-1 0.21094c-2.8633 0.59375-5.1641 2.7227-6.168 5.6836-2.1406 6.3438-4.7461 12.613-7.75 18.629-1.4141 2.8281-1.3008 5.9766 0.30859 8.4336l0.57422 0.875c9.3594 14.281 7.3867 33.398-4.6758 45.449l-7.4609 7.4609c-6.8398 6.8398-15.926 10.605-25.605 10.605-7.0625 0-13.914-2.043-19.832-5.9219l-0.82422-0.53906c-2.3672-1.5547-5.6719-1.6523-8.4141-0.28125-6.0703 3.0469-12.383 5.6836-18.762 7.832-2.9609 1-5.082 3.2969-5.6758 6.1445l-0.16797 0.82031c-3.4961 16.762-18.406 28.879-35.457 28.879zm-75.023-72.43c5.6836 0 11.402 1.3594 16.535 3.9258 5.0039 2.4844 10.219 4.6484 15.496 6.4062 12.363 4.1016 21.672 14.449 24.289 27 0.90234 4.3477 4.2773 7.0977 8.1484 7.0977h10.555c3.8711 0 7.2461-2.75 8.0273-6.5312l0.16797-0.82031c2.6094-12.531 11.852-22.863 24.121-27 5.1602-1.7422 10.262-3.8789 15.168-6.3359 11.516-5.7734 25.73-5.0547 36.336 1.8984l0.82422 0.53906c3.1211 2.0508 7.6016 1.5977 10.277-1.0703l7.4609-7.4609c2.7383-2.7383 3.1797-7.0703 1.0586-10.305l-0.58203-0.88281c-7.0195-10.73-7.7578-24.633-1.9336-36.297 2.4297-4.8633 4.5352-9.9336 6.2656-15.059 4.1523-12.301 14.484-21.555 26.977-24.156l1-0.21094c3.8047-0.78516 6.5547-4.1602 6.5547-8.0312v-10.555c0-3.8711-2.75-7.2461-6.5312-8.0273l-0.82031-0.16797c-12.57-2.625-22.91-11.906-27.039-24.246-1.7227-5.1641-3.8438-10.289-6.3008-15.23-5.7969-11.648-5.0547-25.527 1.9531-36.23l0.50391-0.76953c2.0938-3.1836 1.6445-7.5195-1.0859-10.254l-7.4609-7.4609c-2.6758-2.668-7.1133-3.1445-10.305-1.0586-11.488 7.5234-25.355 7.9883-36.875 2.1719-4.9844-2.5117-10.199-4.7031-15.512-6.4883-12.293-4.1562-21.531-14.484-24.121-26.973-0.88281-4.2383-4.2578-6.9883-8.1289-6.9883h-10.555c-3.8711 0-7.2461 2.75-8.0273 6.5312-2.6445 12.711-11.965 23.066-24.348 27.16-5.3984 1.793-10.719 3.9961-15.836 6.5664-11.5 5.7812-25.691 5.0391-36.301-1.8984-3.5078-2.2969-7.7578-1.6953-10.43 0.97266l-7.4609 7.4609c-2.6953 2.7031-3.1641 6.9492-1.1406 10.18l0.10547 0.14844c7.0508 10.754 7.7617 24.688 1.8828 36.363-2.582 5.125-4.8164 10.492-6.6367 15.953-4.0938 12.348-14.441 21.645-27 24.254-3.7812 0.78516-6.5312 4.1602-6.5312 8.0312v10.555c0 3.8711 2.75 7.2461 6.5312 8.0273 12.664 2.6328 22.996 11.898 27.125 24.207 1.8008 5.3828 4.0195 10.688 6.5859 15.777 5.9219 11.703 5.207 25.656-1.8555 36.43-2.2461 3.4219-1.8047 7.7578 0.92969 10.492l7.4609 7.4609c2.6758 2.668 7.1133 3.1445 10.305 1.0586 6.3242-4.1289 13.137-6.1602 20.172-6.1602z"/>
  <path d="m356.59 343c-34.848 0-63.188-28.352-63.188-63.188 0-34.852 28.352-63.195 63.188-63.195 34.852 0 63.195 28.352 63.195 63.195 0.007813 34.836-28.344 63.188-63.195 63.188zm0-98.391c-19.402 0-35.188 15.793-35.188 35.195 0 19.402 15.785 35.195 35.188 35.195s35.195-15.785 35.195-35.188c0-19.406-15.785-35.203-35.195-35.203z"/>
 </g>
</svg>
